# xmcd
#
# Track frame offsets:
#	150
#	10150
#	22075
#	34687
#	49475
#	60712
#	70987
#	82225
#	102812
#	115525
#	125262
#	138100
#	147375
#	158112
#	168050
#
# Disc length: 2352
#
# Revision: 3
# Processed by: cddbd v1.5.1PL0 Copyright (c) Steve Scherf et al.
# Submitted via: CDex 1.30
# Normalized: r1:TDELIM( - ),TSWAP
#
DISCID=c7092e0f
DTITLE=Various Artist - Country and Western Vol 2 [CD 2)
DYEAR=2001
DGENRE=Country
TTITLE0=Don Williams - Take My Hand For A While
TTITLE1=Conway Twitty - You Made Me What I Am
TTITLE2=Johnny Paycheck - Georgia In A Jag
TTITLE3=Willie Nelson - And So Will You My Love
TTITLE4=Patsy Cline - Just Out Of Reach
TTITLE5=Carl Perkins - Daddy Sang Bass
TTITLE6=Waylon Jennings - Sally Was A Good Old Girl
TTITLE7=Gram parsons and Emylou Harris - Love Hearts
TTITLE8=Kalvin Handerson - You Still Want To Go
TTITLE9=Ray Pillow - How Do I Hide From A Memory
TTITLE10=Nashville West - By The Time I Get To Phoenix
TTITLE11=Faron Young - I can't Help It If I'm Still In Love
TTITLE12=Dolly Parton - It Wasn't God Who Made Honky Tonk Angles
TTITLE13=Willie Nelson - Healing Hands Out Of Time
TTITLE14=Conway Twitty - Blue Is The Way I Feel
EXTD=\nYEAR: 2001  ID3G:   2
EXTT0=
EXTT1=
EXTT2=
EXTT3=
EXTT4=
EXTT5=
EXTT6=
EXTT7=
EXTT8=
EXTT9=
EXTT10=
EXTT11=
EXTT12=
EXTT13=
EXTT14=
PLAYORDER=
